<svg xmlns="http://www.w3.org/2000/svg" viewBox="0 0 24 24" fill="#1DA1F2" width="24px" height="24px">
  <path d="M23.954 4.569c-.885.392-1.83.656-2.825.775 1.014-.611 1.794-1.574 2.163-2.723-.95.564-2.005.974-3.127 1.195-.897-.957-2.178-1.555-3.594-1.555-2.717 0-4.917 2.201-4.917 4.917 0 .39.045.765.127 1.124-4.083-.205-7.702-2.158-10.125-5.134-.422.722-.664 1.561-.664 2.457 0 1.694.863 3.188 2.175 4.065-.803-.025-1.56-.246-2.22-.616v.061c0 2.366 1.683 4.338 3.918 4.783-.41.111-.84.171-1.285.171-.314 0-.615-.03-.916-.086.631 1.953 2.445 3.377 4.6 3.418-1.68 1.316-3.809 2.101-6.102 2.101-.398 0-.79-.023-1.174-.068 2.179 1.397 4.768 2.209 7.557 2.209 9.054 0 14.003-7.496 14.003-13.986 0-.21 0-.423-.015-.634.961-.689 1.8-1.56 2.46-2.548l-.047-.02z"></path>
</svg>
